<mxfile host="app.diagrams.net" modified="2024-01-23T06:31:15.311Z" agent="Mozilla/5.0 (Windows NT 10.0; Win64; x64; rv:121.0) Gecko/20100101 Firefox/121.0" etag="WAVvt8FiYxgN49ufZp74" version="22.1.21" type="device">
  <diagram name="Страница — 1" id="yt1avvEZHcTwcgSZmL5z">
    <mxGraphModel dx="1434" dy="754" grid="1" gridSize="10" guides="1" tooltips="1" connect="1" arrows="1" fold="1" page="1" pageScale="1" pageWidth="827" pageHeight="1169" math="0" shadow="0">
      <root>
        <mxCell id="0" />
        <mxCell id="1" parent="0" />
        <mxCell id="FqMbTelviBWnLQqyU_Y8-3" style="edgeStyle=orthogonalEdgeStyle;rounded=0;orthogonalLoop=1;jettySize=auto;html=1;entryX=0.5;entryY=0;entryDx=0;entryDy=0;" parent="1" source="FqMbTelviBWnLQqyU_Y8-1" target="FqMbTelviBWnLQqyU_Y8-2" edge="1">
          <mxGeometry relative="1" as="geometry" />
        </mxCell>
        <mxCell id="FqMbTelviBWnLQqyU_Y8-1" value="Start" style="rounded=1;whiteSpace=wrap;html=1;" parent="1" vertex="1">
          <mxGeometry x="350" y="20" width="120" height="60" as="geometry" />
        </mxCell>
        <mxCell id="FqMbTelviBWnLQqyU_Y8-6" style="edgeStyle=orthogonalEdgeStyle;rounded=0;orthogonalLoop=1;jettySize=auto;html=1;entryX=0.5;entryY=0;entryDx=0;entryDy=0;" parent="1" source="FqMbTelviBWnLQqyU_Y8-2" target="FqMbTelviBWnLQqyU_Y8-4" edge="1">
          <mxGeometry relative="1" as="geometry" />
        </mxCell>
        <mxCell id="FqMbTelviBWnLQqyU_Y8-2" value="text" style="shape=parallelogram;perimeter=parallelogramPerimeter;whiteSpace=wrap;html=1;fixedSize=1;" parent="1" vertex="1">
          <mxGeometry x="330" y="130" width="160" height="60" as="geometry" />
        </mxCell>
        <mxCell id="FqMbTelviBWnLQqyU_Y8-8" style="edgeStyle=orthogonalEdgeStyle;rounded=0;orthogonalLoop=1;jettySize=auto;html=1;entryX=0.5;entryY=0;entryDx=0;entryDy=0;" parent="1" source="FqMbTelviBWnLQqyU_Y8-4" target="FqMbTelviBWnLQqyU_Y8-7" edge="1">
          <mxGeometry relative="1" as="geometry" />
        </mxCell>
        <mxCell id="FqMbTelviBWnLQqyU_Y8-4" value="someText[] = split(&quot; &quot;).ToArray()" style="rounded=0;whiteSpace=wrap;html=1;" parent="1" vertex="1">
          <mxGeometry x="310" y="250" width="200" height="60" as="geometry" />
        </mxCell>
        <mxCell id="FqMbTelviBWnLQqyU_Y8-13" style="edgeStyle=orthogonalEdgeStyle;rounded=0;orthogonalLoop=1;jettySize=auto;html=1;entryX=0.5;entryY=0;entryDx=0;entryDy=0;" parent="1" source="FqMbTelviBWnLQqyU_Y8-7" target="FqMbTelviBWnLQqyU_Y8-9" edge="1">
          <mxGeometry relative="1" as="geometry" />
        </mxCell>
        <mxCell id="FqMbTelviBWnLQqyU_Y8-7" value="&lt;div&gt;n = 0&lt;/div&gt;&lt;div&gt;newStr[] = []&lt;/div&gt;&lt;div&gt;i = 0&lt;br&gt;&lt;/div&gt;" style="rounded=0;whiteSpace=wrap;html=1;" parent="1" vertex="1">
          <mxGeometry x="350" y="350" width="120" height="60" as="geometry" />
        </mxCell>
        <mxCell id="FqMbTelviBWnLQqyU_Y8-11" style="edgeStyle=orthogonalEdgeStyle;rounded=0;orthogonalLoop=1;jettySize=auto;html=1;" parent="1" source="FqMbTelviBWnLQqyU_Y8-9" target="FqMbTelviBWnLQqyU_Y8-10" edge="1">
          <mxGeometry relative="1" as="geometry" />
        </mxCell>
        <mxCell id="FqMbTelviBWnLQqyU_Y8-12" value="&lt;div&gt;yes&lt;/div&gt;" style="edgeLabel;html=1;align=center;verticalAlign=middle;resizable=0;points=[];" parent="FqMbTelviBWnLQqyU_Y8-11" vertex="1" connectable="0">
          <mxGeometry x="-0.2333" y="-2" relative="1" as="geometry">
            <mxPoint as="offset" />
          </mxGeometry>
        </mxCell>
        <mxCell id="FqMbTelviBWnLQqyU_Y8-23" style="edgeStyle=orthogonalEdgeStyle;rounded=0;orthogonalLoop=1;jettySize=auto;html=1;exitX=1;exitY=0.5;exitDx=0;exitDy=0;entryX=0;entryY=0.5;entryDx=0;entryDy=0;" parent="1" source="FqMbTelviBWnLQqyU_Y8-9" target="FqMbTelviBWnLQqyU_Y8-22" edge="1">
          <mxGeometry relative="1" as="geometry" />
        </mxCell>
        <mxCell id="FqMbTelviBWnLQqyU_Y8-9" value="i &amp;lt;someText.Length" style="rhombus;whiteSpace=wrap;html=1;" parent="1" vertex="1">
          <mxGeometry x="335" y="450" width="150" height="80" as="geometry" />
        </mxCell>
        <mxCell id="FqMbTelviBWnLQqyU_Y8-15" style="edgeStyle=orthogonalEdgeStyle;rounded=0;orthogonalLoop=1;jettySize=auto;html=1;entryX=0.5;entryY=0;entryDx=0;entryDy=0;" parent="1" source="FqMbTelviBWnLQqyU_Y8-10" target="FqMbTelviBWnLQqyU_Y8-14" edge="1">
          <mxGeometry relative="1" as="geometry" />
        </mxCell>
        <mxCell id="FqMbTelviBWnLQqyU_Y8-17" value="&lt;div&gt;yes&lt;/div&gt;" style="edgeLabel;html=1;align=center;verticalAlign=middle;resizable=0;points=[];" parent="FqMbTelviBWnLQqyU_Y8-15" vertex="1" connectable="0">
          <mxGeometry x="-0.3714" y="2" relative="1" as="geometry">
            <mxPoint y="-8" as="offset" />
          </mxGeometry>
        </mxCell>
        <mxCell id="FqMbTelviBWnLQqyU_Y8-20" style="edgeStyle=orthogonalEdgeStyle;rounded=0;orthogonalLoop=1;jettySize=auto;html=1;entryX=0.5;entryY=0;entryDx=0;entryDy=0;" parent="1" source="FqMbTelviBWnLQqyU_Y8-10" target="FqMbTelviBWnLQqyU_Y8-18" edge="1">
          <mxGeometry relative="1" as="geometry" />
        </mxCell>
        <mxCell id="FqMbTelviBWnLQqyU_Y8-25" value="&lt;div&gt;no&lt;/div&gt;" style="edgeLabel;html=1;align=center;verticalAlign=middle;resizable=0;points=[];" parent="FqMbTelviBWnLQqyU_Y8-20" vertex="1" connectable="0">
          <mxGeometry x="-0.02" y="1" relative="1" as="geometry">
            <mxPoint as="offset" />
          </mxGeometry>
        </mxCell>
        <mxCell id="FqMbTelviBWnLQqyU_Y8-10" value="&lt;div&gt;someText[i].Length &amp;lt; 4&lt;br&gt;&lt;/div&gt;" style="rhombus;whiteSpace=wrap;html=1;" parent="1" vertex="1">
          <mxGeometry x="340" y="590" width="140" height="80" as="geometry" />
        </mxCell>
        <mxCell id="FqMbTelviBWnLQqyU_Y8-19" style="edgeStyle=orthogonalEdgeStyle;rounded=0;orthogonalLoop=1;jettySize=auto;html=1;exitX=0.5;exitY=1;exitDx=0;exitDy=0;entryX=0.5;entryY=0;entryDx=0;entryDy=0;" parent="1" source="FqMbTelviBWnLQqyU_Y8-14" target="FqMbTelviBWnLQqyU_Y8-18" edge="1">
          <mxGeometry relative="1" as="geometry" />
        </mxCell>
        <mxCell id="FqMbTelviBWnLQqyU_Y8-14" value="&lt;div&gt;newStr[n] = someText [i]&lt;/div&gt;&lt;div&gt;n++&lt;br&gt;&lt;/div&gt;" style="rounded=0;whiteSpace=wrap;html=1;" parent="1" vertex="1">
          <mxGeometry x="485" y="670" width="145" height="60" as="geometry" />
        </mxCell>
        <mxCell id="FqMbTelviBWnLQqyU_Y8-21" style="edgeStyle=orthogonalEdgeStyle;rounded=0;orthogonalLoop=1;jettySize=auto;html=1;exitX=0.5;exitY=1;exitDx=0;exitDy=0;entryX=0;entryY=0.5;entryDx=0;entryDy=0;" parent="1" source="FqMbTelviBWnLQqyU_Y8-18" target="FqMbTelviBWnLQqyU_Y8-9" edge="1">
          <mxGeometry relative="1" as="geometry" />
        </mxCell>
        <mxCell id="FqMbTelviBWnLQqyU_Y8-18" value="i++" style="rounded=0;whiteSpace=wrap;html=1;" parent="1" vertex="1">
          <mxGeometry x="350" y="770" width="120" height="40" as="geometry" />
        </mxCell>
        <mxCell id="FqMbTelviBWnLQqyU_Y8-26" style="edgeStyle=orthogonalEdgeStyle;rounded=0;orthogonalLoop=1;jettySize=auto;html=1;" parent="1" source="FqMbTelviBWnLQqyU_Y8-27" edge="1">
          <mxGeometry relative="1" as="geometry">
            <mxPoint x="720" y="590" as="targetPoint" />
          </mxGeometry>
        </mxCell>
        <mxCell id="FqMbTelviBWnLQqyU_Y8-22" value="NewStr = NewStr.Where(x =&amp;gt; x != null).ToArray()" style="rounded=0;whiteSpace=wrap;html=1;" parent="1" vertex="1">
          <mxGeometry x="660" y="460" width="120" height="60" as="geometry" />
        </mxCell>
        <mxCell id="FqMbTelviBWnLQqyU_Y8-24" value="&lt;div&gt;no&lt;/div&gt;" style="text;html=1;align=center;verticalAlign=middle;resizable=0;points=[];autosize=1;strokeColor=none;fillColor=none;" parent="1" vertex="1">
          <mxGeometry x="530" y="468" width="40" height="30" as="geometry" />
        </mxCell>
        <mxCell id="FqMbTelviBWnLQqyU_Y8-28" value="" style="edgeStyle=orthogonalEdgeStyle;rounded=0;orthogonalLoop=1;jettySize=auto;html=1;" parent="1" source="FqMbTelviBWnLQqyU_Y8-22" target="FqMbTelviBWnLQqyU_Y8-27" edge="1">
          <mxGeometry relative="1" as="geometry">
            <mxPoint x="720" y="590" as="targetPoint" />
            <mxPoint x="720" y="520" as="sourcePoint" />
          </mxGeometry>
        </mxCell>
        <mxCell id="FqMbTelviBWnLQqyU_Y8-30" style="edgeStyle=orthogonalEdgeStyle;rounded=0;orthogonalLoop=1;jettySize=auto;html=1;entryX=0.5;entryY=0;entryDx=0;entryDy=0;" parent="1" source="FqMbTelviBWnLQqyU_Y8-27" target="FqMbTelviBWnLQqyU_Y8-29" edge="1">
          <mxGeometry relative="1" as="geometry" />
        </mxCell>
        <mxCell id="FqMbTelviBWnLQqyU_Y8-27" value="print (NewStr)" style="shape=document;whiteSpace=wrap;html=1;boundedLbl=1;" parent="1" vertex="1">
          <mxGeometry x="660" y="560" width="120" height="80" as="geometry" />
        </mxCell>
        <mxCell id="FqMbTelviBWnLQqyU_Y8-29" value="end" style="rounded=1;whiteSpace=wrap;html=1;" parent="1" vertex="1">
          <mxGeometry x="660" y="660" width="120" height="60" as="geometry" />
        </mxCell>
      </root>
    </mxGraphModel>
  </diagram>
</mxfile>
